<?xml version="1.0" encoding="UTF-8" standalone="no"?>
<!-- Created with Inkscape (http://www.inkscape.org/) -->
<svg
   xmlns:svg="http://www.w3.org/2000/svg"
   xmlns="http://www.w3.org/2000/svg"
   xmlns:xlink="http://www.w3.org/1999/xlink"
   version="1.0"
   width="320"
   height="320"
   id="svg2">
  <defs
     id="defs5" />
  <g
     transform="translate(-257.0571,-27.05707)"
     id="g3561">
    <g
       id="g3274">
      <rect
         width="97.500008"
         height="97.499985"
         x="368.30707"
         y="138.30708"
         style="opacity:1;fill:none;fill-opacity:1;stroke:black;stroke-width:2.50000119;stroke-linecap:square;stroke-linejoin:round;stroke-miterlimit:4;stroke-dasharray:none;stroke-opacity:1"
         id="rect3202" />
      <path
         d="M 463.46333,233.46332 L 540.80708,310.80707 M 293.30707,63.307072 L 370.65082,140.65082"
         style="fill:none;fill-opacity:0.75;fill-rule:evenodd;stroke:black;stroke-width:2.5;stroke-linecap:butt;stroke-linejoin:miter;stroke-miterlimit:4;stroke-dasharray:none;stroke-opacity:1"
         id="path3204" />
      <use
         transform="matrix(-1,0,0,1,834.1141,0)"
         id="use3206"
         x="0"
         y="0"
         width="600"
         height="400"
         xlink:href="#path3204" />
      <rect
         width="247.50008"
         height="247.50012"
         x="293.30704"
         y="63.307011"
         style="opacity:1;fill:none;fill-opacity:1;stroke:black;stroke-width:2.50000119;stroke-linecap:square;stroke-linejoin:round;stroke-miterlimit:4;stroke-dasharray:none;stroke-opacity:1"
         id="rect3172" />
    </g>
    <g
       id="g3246">
      <g
         id="g3188">
        <path
           d="M 488.9212,138 C 488.9212,150.596 478.71013,160.80707 466.11415,160.80707 C 453.51813,160.80707 443.30707,150.596 443.30707,138 C 443.30707,125.40401 453.51813,115.19293 466.11415,115.19293 C 478.71013,115.19293 488.9212,125.40401 488.9212,138 L 488.9212,138 z "
           style="fill:#ff8bba;fill-opacity:1;fill-rule:nonzero;stroke:black;stroke-width:2.5;stroke-linecap:butt;stroke-linejoin:round;stroke-miterlimit:4;stroke-dasharray:none;stroke-dashoffset:12.5;stroke-opacity:1"
           id="path3106" />
        <path
           d="M 390.80707,236.11414 C 390.80707,248.71014 380.59599,258.92121 368,258.92121 C 355.404,258.92121 345.19293,248.71014 345.19293,236.11414 C 345.19293,223.51815 355.404,213.30707 368,213.30707 C 380.59599,213.30707 390.80707,223.51815 390.80707,236.11414 L 390.80707,236.11414 z "
           style="fill:#eaff8b;fill-opacity:1;fill-rule:nonzero;stroke:black;stroke-width:2.5;stroke-linecap:butt;stroke-linejoin:round;stroke-miterlimit:4;stroke-dasharray:none;stroke-dashoffset:12.5;stroke-opacity:1"
           id="path3108" />
        <path
           d="M 390.80706,138 C 390.80706,150.596 380.59599,160.80707 368,160.80707 C 355.404,160.80707 345.19294,150.596 345.19294,138 C 345.19294,125.40401 355.404,115.19293 368,115.19293 C 380.59599,115.19293 390.80706,125.40401 390.80706,138 L 390.80706,138 z "
           style="fill:#8bffa1;fill-opacity:1;fill-rule:nonzero;stroke:black;stroke-width:2.5;stroke-linecap:butt;stroke-linejoin:round;stroke-miterlimit:4;stroke-dasharray:none;stroke-dashoffset:12.5;stroke-opacity:1"
           id="path3112" />
        <path
           d="M 488.92119,236.11414 C 488.92119,248.71014 478.71013,258.92121 466.11414,258.92121 C 453.51813,258.92121 443.30708,248.71014 443.30708,236.11414 C 443.30708,223.51815 453.51813,213.30707 466.11414,213.30707 C 478.71013,213.30707 488.92119,223.51815 488.92119,236.11414 L 488.92119,236.11414 z "
           style="fill:#ae8bff;fill-opacity:1;fill-rule:nonzero;stroke:black;stroke-width:2.5;stroke-linecap:butt;stroke-linejoin:round;stroke-miterlimit:4;stroke-dasharray:none;stroke-dashoffset:12.5;stroke-opacity:1"
           id="path3118" />
        <text
           x="367.65137"
           y="246.29285"
           style="font-size:12px;font-style:normal;font-weight:normal;fill:black;fill-opacity:1;stroke:none;stroke-width:1px;stroke-linecap:butt;stroke-linejoin:miter;stroke-opacity:1;font-family:Bitstream Vera Sans"
           id="text3148"
           xml:space="preserve"><tspan
             x="367.65137"
             y="246.29285"
             style="font-size:28px;font-style:italic;text-align:center;text-anchor:middle;font-family:Verdana"
             id="tspan3150">8</tspan></text>
        <text
           x="367.0498"
           y="147.9668"
           style="font-size:12px;font-style:normal;font-weight:normal;fill:black;fill-opacity:1;stroke:none;stroke-width:1px;stroke-linecap:butt;stroke-linejoin:miter;stroke-opacity:1;font-family:Bitstream Vera Sans"
           id="text3152"
           xml:space="preserve"><tspan
             x="367.0498"
             y="147.9668"
             style="font-size:28px;font-style:italic;text-align:center;text-anchor:middle;font-family:Verdana"
             id="tspan3154">5</tspan></text>
        <text
           x="465.745"
           y="148.1582"
           style="font-size:12px;font-style:normal;font-weight:normal;fill:black;fill-opacity:1;stroke:none;stroke-width:1px;stroke-linecap:butt;stroke-linejoin:miter;stroke-opacity:1;font-family:Bitstream Vera Sans"
           id="text3156"
           xml:space="preserve"><tspan
             x="465.745"
             y="148.1582"
             style="font-size:28px;font-style:italic;text-align:center;text-anchor:middle;font-family:Verdana"
             id="tspan3158">6</tspan></text>
        <text
           x="464.54187"
           y="246.29285"
           style="font-size:12px;font-style:normal;font-weight:normal;fill:black;fill-opacity:1;stroke:none;stroke-width:1px;stroke-linecap:butt;stroke-linejoin:miter;stroke-opacity:1;font-family:Bitstream Vera Sans"
           id="text3160"
           xml:space="preserve"><tspan
             x="464.54187"
             y="246.29285"
             style="font-size:28px;font-style:italic;text-align:center;text-anchor:middle;font-family:Verdana"
             id="tspan3162">7</tspan></text>
      </g>
      <g
         id="g3174">
        <path
           d="M 315.80707,63.000002 C 315.80707,75.595996 305.596,85.807067 293.00001,85.807067 C 280.404,85.807067 270.19293,75.595996 270.19293,63.000002 C 270.19293,50.404006 280.404,40.192933 293.00001,40.192933 C 305.596,40.192933 315.80707,50.404006 315.80707,63.000002 L 315.80707,63.000002 z "
           style="fill:#8bc5ff;fill-opacity:1;fill-rule:nonzero;stroke:black;stroke-width:2.5;stroke-linecap:butt;stroke-linejoin:round;stroke-miterlimit:4;stroke-dasharray:none;stroke-dashoffset:12.5;stroke-opacity:1"
           id="path3104" />
        <path
           d="M 563.9212,311.11414 C 563.9212,323.71014 553.71015,333.92121 541.11415,333.92121 C 528.51814,333.92121 518.30708,323.71014 518.30708,311.11414 C 518.30708,298.51815 528.51814,288.30707 541.11415,288.30707 C 553.71015,288.30707 563.9212,298.51815 563.9212,311.11414 L 563.9212,311.11414 z "
           style="fill:#8bfffb;fill-opacity:1;fill-rule:nonzero;stroke:black;stroke-width:2.5;stroke-linecap:butt;stroke-linejoin:round;stroke-miterlimit:4;stroke-dasharray:none;stroke-dashoffset:12.5;stroke-opacity:1"
           id="path3110" />
        <path
           d="M 563.9212,63 C 563.9212,75.596 553.71014,85.80707 541.11414,85.80707 C 528.51814,85.80707 518.30708,75.596 518.30708,63 C 518.30708,50.40401 528.51814,40.19293 541.11414,40.19293 C 553.71014,40.19293 563.9212,50.40401 563.9212,63 L 563.9212,63 z "
           style="fill:#ff8b8b;fill-opacity:1;fill-rule:nonzero;stroke:black;stroke-width:2.5;stroke-linecap:butt;stroke-linejoin:round;stroke-miterlimit:4;stroke-dasharray:none;stroke-dashoffset:12.5;stroke-opacity:1"
           id="path3114" />
        <path
           d="M 315.80706,311.11414 C 315.80706,323.71014 305.596,333.92121 293,333.92121 C 280.404,333.92121 270.19294,323.71014 270.19294,311.11414 C 270.19294,298.51815 280.404,288.30707 293,288.30707 C 305.596,288.30707 315.80706,298.51815 315.80706,311.11414 L 315.80706,311.11414 z "
           style="fill:#ffcc8b;fill-opacity:1;fill-rule:nonzero;stroke:black;stroke-width:2.5;stroke-linecap:butt;stroke-linejoin:round;stroke-miterlimit:4;stroke-dasharray:none;stroke-dashoffset:12.5;stroke-opacity:1"
           id="path3116" />
        <text
           x="294.01855"
           y="73.212891"
           style="font-size:12px;font-style:normal;font-weight:normal;fill:black;fill-opacity:1;stroke:none;stroke-width:1px;stroke-linecap:butt;stroke-linejoin:miter;stroke-opacity:1;font-family:Bitstream Vera Sans"
           id="text3140"
           xml:space="preserve"><tspan
             x="294.01855"
             y="73.212891"
             style="font-size:28px;font-style:italic;text-align:center;text-anchor:middle;font-family:Verdana"
             id="tspan3142">1</tspan></text>
        <text
           x="293.31445"
           y="321.29285"
           style="font-size:12px;font-style:normal;font-weight:normal;fill:black;fill-opacity:1;stroke:none;stroke-width:1px;stroke-linecap:butt;stroke-linejoin:miter;stroke-opacity:1;font-family:Bitstream Vera Sans"
           id="text3144"
           xml:space="preserve"><tspan
             x="293.31445"
             y="321.29285"
             style="font-size:28px;font-style:italic;text-align:center;text-anchor:middle;font-family:Verdana"
             id="tspan3146">4</tspan></text>
        <text
           x="541.49695"
           y="73.390625"
           style="font-size:12px;font-style:normal;font-weight:normal;fill:black;fill-opacity:1;stroke:none;stroke-width:1px;stroke-linecap:butt;stroke-linejoin:miter;stroke-opacity:1;font-family:Bitstream Vera Sans"
           id="text3164"
           xml:space="preserve"><tspan
             x="541.49695"
             y="73.390625"
             style="font-size:28px;font-style:italic;text-align:center;text-anchor:middle;font-family:Verdana"
             id="tspan3166">2</tspan></text>
        <text
           x="541.04578"
           y="321.29285"
           style="font-size:12px;font-style:normal;font-weight:normal;fill:black;fill-opacity:1;stroke:none;stroke-width:1px;stroke-linecap:butt;stroke-linejoin:miter;stroke-opacity:1;font-family:Bitstream Vera Sans"
           id="text3168"
           xml:space="preserve"><tspan
             x="541.04578"
             y="321.29285"
             style="font-size:28px;font-style:italic;text-align:center;text-anchor:middle;font-family:Verdana"
             id="tspan3170">3</tspan></text>
      </g>
    </g>
  </g>
</svg>
