<?xml version="1.0" encoding="UTF-8" standalone="no"?>
<!-- Created with Inkscape (http://www.inkscape.org/) -->
<svg
   xmlns:svg="http://www.w3.org/2000/svg"
   xmlns="http://www.w3.org/2000/svg"
   xmlns:xlink="http://www.w3.org/1999/xlink"
   version="1.0"
   width="160"
   height="340"
   id="svg2">
  <defs
     id="defs5" />
  <g
     transform="translate(-24.0282,-31.04846)"
     id="g3318">
    <g
       transform="translate(-24.28427,12.72792)"
       id="g3306">
      <use
         transform="matrix(1,0,0,-1,0,376.532)"
         id="use3234"
         x="0"
         y="0"
         width="600"
         height="400"
         xlink:href="#g3220" />
      <g
         transform="translate(1.033274,0.256824)"
         id="g3220">
        <path
           d="M 80.610173,49.275037 L 173.94827,142.61313 L 79.279222,327.504"
           style="fill:none;fill-opacity:0.75;fill-rule:evenodd;stroke:black;stroke-width:2.5;stroke-linecap:butt;stroke-linejoin:miter;stroke-miterlimit:4;stroke-dasharray:none;stroke-opacity:1"
           id="path3216" />
        <use
           transform="matrix(-1,0,0,1,254.5584,0)"
           id="use3218"
           x="0"
           y="0"
           width="600"
           height="400"
           xlink:href="#path3216" />
      </g>
      <path
         d="M 80.312477,50.141081 L 176.31248,50.141081"
         style="fill:none;fill-opacity:0.75;fill-rule:evenodd;stroke:black;stroke-width:2.5;stroke-linecap:butt;stroke-linejoin:miter;stroke-miterlimit:4;stroke-dasharray:none;stroke-opacity:1"
         id="path3208" />
      <use
         transform="translate(0,92.11965)"
         id="use3210"
         x="0"
         y="0"
         width="600"
         height="400"
         xlink:href="#path3208" />
      <use
         transform="translate(0,184.2393)"
         id="use3212"
         x="0"
         y="0"
         width="600"
         height="400"
         xlink:href="#path3208" />
      <use
         transform="translate(0,276.3589)"
         id="use3214"
         x="0"
         y="0"
         width="600"
         height="400"
         xlink:href="#path3208" />
    </g>
    <g
       transform="translate(-24.28427,12.72792)"
       id="g3280">
      <path
         d="M 104.43202,50.141083 C 104.43202,62.737077 94.22095,72.948148 81.62496,72.948148 C 69.028953,72.948148 58.817888,62.737077 58.817888,50.141083 C 58.817888,37.545087 69.028953,27.334014 81.62496,27.334014 C 94.22095,27.334014 104.43202,37.545087 104.43202,50.141083 L 104.43202,50.141083 z "
         style="fill:#8bc5ff;fill-opacity:1;fill-rule:nonzero;stroke:black;stroke-width:2.5;stroke-linecap:butt;stroke-linejoin:round;stroke-miterlimit:4;stroke-dasharray:none;stroke-dashoffset:12.5;stroke-opacity:1"
         id="use2759" />
      <path
         d="M 197.80706,50.141082 C 197.80706,62.737077 187.596,72.948148 175,72.948148 C 162.404,72.948148 152.19294,62.737077 152.19294,50.141082 C 152.19294,37.545086 162.404,27.334014 175,27.334014 C 187.596,27.334014 197.80706,37.545086 197.80706,50.141082 L 197.80706,50.141082 z "
         style="fill:#8bffa1;fill-opacity:1;fill-rule:nonzero;stroke:black;stroke-width:2.5;stroke-linecap:butt;stroke-linejoin:round;stroke-miterlimit:4;stroke-dasharray:none;stroke-dashoffset:12.5;stroke-opacity:1"
         id="path2956" />
      <path
         d="M 104.43202,142.26073 C 104.43202,154.85673 94.22095,165.0678 81.62496,165.0678 C 69.028953,165.0678 58.817888,154.85673 58.817888,142.26073 C 58.817888,129.66474 69.028953,119.45366 81.62496,119.45366 C 94.22095,119.45366 104.43202,129.66474 104.43202,142.26073 L 104.43202,142.26073 z "
         style="fill:#ff8bba;fill-opacity:1;fill-rule:nonzero;stroke:black;stroke-width:2.5;stroke-linecap:butt;stroke-linejoin:round;stroke-miterlimit:4;stroke-dasharray:none;stroke-dashoffset:12.5;stroke-opacity:1"
         id="path2958" />
      <path
         d="M 197.80706,142.26073 C 197.80706,154.85673 187.596,165.0678 175,165.0678 C 162.404,165.0678 152.19294,154.85673 152.19294,142.26073 C 152.19294,129.66474 162.404,119.45366 175,119.45366 C 187.596,119.45366 197.80706,129.66474 197.80706,142.26073 L 197.80706,142.26073 z "
         style="fill:#ff8b8b;fill-opacity:1;fill-rule:nonzero;stroke:black;stroke-width:2.5;stroke-linecap:butt;stroke-linejoin:round;stroke-miterlimit:4;stroke-dasharray:none;stroke-dashoffset:12.5;stroke-opacity:1"
         id="path2960" />
      <text
         x="82.164993"
         y="57.749481"
         style="font-size:12px;font-style:normal;font-weight:normal;fill:black;fill-opacity:1;stroke:none;stroke-width:1px;stroke-linecap:butt;stroke-linejoin:miter;stroke-opacity:1;font-family:Bitstream Vera Sans"
         id="text3988"
         xml:space="preserve"><tspan
           x="82.164993"
           y="57.749481"
           style="font-size:28px;font-style:italic;text-align:center;text-anchor:middle;font-family:Verdana"
           id="tspan3990">a</tspan></text>
      <path
         d="M 104.43202,234.38036 C 104.43202,246.97636 94.22095,257.18743 81.62496,257.18743 C 69.028953,257.18743 58.817888,246.97636 58.817888,234.38036 C 58.817888,221.78437 69.028953,211.57329 81.62496,211.57329 C 94.22095,211.57329 104.43202,221.78437 104.43202,234.38036 L 104.43202,234.38036 z "
         style="fill:#eaff8b;fill-opacity:1;fill-rule:nonzero;stroke:black;stroke-width:2.5;stroke-linecap:butt;stroke-linejoin:round;stroke-miterlimit:4;stroke-dasharray:none;stroke-dashoffset:12.5;stroke-opacity:1"
         id="path2962" />
      <path
         d="M 197.80706,234.38036 C 197.80706,246.97636 187.596,257.18743 175,257.18743 C 162.404,257.18743 152.19294,246.97636 152.19294,234.38036 C 152.19294,221.78437 162.404,211.57329 175,211.57329 C 187.596,211.57329 197.80706,221.78437 197.80706,234.38036 L 197.80706,234.38036 z "
         style="fill:#ffcc8b;fill-opacity:1;fill-rule:nonzero;stroke:black;stroke-width:2.5;stroke-linecap:butt;stroke-linejoin:round;stroke-miterlimit:4;stroke-dasharray:none;stroke-dashoffset:12.5;stroke-opacity:1"
         id="path2964" />
      <path
         d="M 104.43201,326.5 C 104.43201,339.096 94.22096,349.30707 81.62496,349.30707 C 69.028955,349.30707 58.81789,339.096 58.81789,326.5 C 58.81789,313.90401 69.028955,303.69293 81.62496,303.69293 C 94.22096,303.69293 104.43201,313.90401 104.43201,326.5 L 104.43201,326.5 z "
         style="fill:#8bfffb;fill-opacity:1;fill-rule:nonzero;stroke:black;stroke-width:2.5;stroke-linecap:butt;stroke-linejoin:round;stroke-miterlimit:4;stroke-dasharray:none;stroke-dashoffset:12.5;stroke-opacity:1"
         id="path2966" />
      <path
         d="M 197.80706,326.5 C 197.80706,339.096 187.596,349.30707 175,349.30707 C 162.404,349.30707 152.19294,339.096 152.19294,326.5 C 152.19294,313.90401 162.404,303.69293 175,303.69293 C 187.596,303.69293 197.80706,313.90401 197.80706,326.5 L 197.80706,326.5 z "
         style="fill:#ae8bff;fill-opacity:1;fill-rule:nonzero;stroke:black;stroke-width:2.5;stroke-linecap:butt;stroke-linejoin:round;stroke-miterlimit:4;stroke-dasharray:none;stroke-dashoffset:12.5;stroke-opacity:1"
         id="path2968" />
      <text
         x="81.823196"
         y="150.68553"
         style="font-size:12px;font-style:normal;font-weight:normal;fill:black;fill-opacity:1;stroke:none;stroke-width:1px;stroke-linecap:butt;stroke-linejoin:miter;stroke-opacity:1;font-family:Bitstream Vera Sans"
         id="text2970"
         xml:space="preserve"><tspan
           x="81.823196"
           y="150.68553"
           style="font-size:28px;font-style:italic;text-align:center;text-anchor:middle;font-family:Verdana"
           id="tspan2972">b</tspan></text>
      <text
         x="80.79097"
         y="242.02293"
         style="font-size:12px;font-style:normal;font-weight:normal;fill:black;fill-opacity:1;stroke:none;stroke-width:1px;stroke-linecap:butt;stroke-linejoin:miter;stroke-opacity:1;font-family:Bitstream Vera Sans"
         id="text2974"
         xml:space="preserve"><tspan
           x="80.79097"
           y="242.02293"
           style="font-size:28px;font-style:italic;text-align:center;text-anchor:middle;font-family:Verdana"
           id="tspan2976">c</tspan></text>
      <text
         x="80.729439"
         y="334.9248"
         style="font-size:12px;font-style:normal;font-weight:normal;fill:black;fill-opacity:1;stroke:none;stroke-width:1px;stroke-linecap:butt;stroke-linejoin:miter;stroke-opacity:1;font-family:Bitstream Vera Sans"
         id="text2978"
         xml:space="preserve"><tspan
           x="80.729439"
           y="334.9248"
           style="font-size:28px;font-style:italic;text-align:center;text-anchor:middle;font-family:Verdana"
           id="tspan2980">d</tspan></text>
      <text
         x="175.23242"
         y="58.097137"
         style="font-size:12px;font-style:normal;font-weight:normal;fill:black;fill-opacity:1;stroke:none;stroke-width:1px;stroke-linecap:butt;stroke-linejoin:miter;stroke-opacity:1;font-family:Bitstream Vera Sans"
         id="text2982"
         xml:space="preserve"><tspan
           x="175.23242"
           y="58.097137"
           style="font-size:28px;font-style:italic;text-align:center;text-anchor:middle;font-family:Verdana"
           id="tspan2984">g</tspan></text>
      <text
         x="175.44434"
         y="150.89745"
         style="font-size:12px;font-style:normal;font-weight:normal;fill:black;fill-opacity:1;stroke:none;stroke-width:1px;stroke-linecap:butt;stroke-linejoin:miter;stroke-opacity:1;font-family:Bitstream Vera Sans"
         id="text2986"
         xml:space="preserve"><tspan
           x="175.44434"
           y="150.89745"
           style="font-size:28px;font-style:italic;text-align:center;text-anchor:middle;font-family:Verdana"
           id="tspan2988">h</tspan></text>
      <text
         x="174.33008"
         y="244.62743"
         style="font-size:12px;font-style:normal;font-weight:normal;fill:black;fill-opacity:1;stroke:none;stroke-width:1px;stroke-linecap:butt;stroke-linejoin:miter;stroke-opacity:1;font-family:Bitstream Vera Sans"
         id="text2990"
         xml:space="preserve"><tspan
           x="174.33008"
           y="244.62743"
           style="font-size:28px;font-style:italic;text-align:center;text-anchor:middle;font-family:Verdana"
           id="tspan2992">i</tspan></text>
      <text
         x="176.51074"
         y="336.85547"
         style="font-size:12px;font-style:normal;font-weight:normal;fill:black;fill-opacity:1;stroke:none;stroke-width:1px;stroke-linecap:butt;stroke-linejoin:miter;stroke-opacity:1;font-family:Bitstream Vera Sans"
         id="text2994"
         xml:space="preserve"><tspan
           x="176.51074"
           y="336.85547"
           style="font-size:28px;font-style:italic;text-align:center;text-anchor:middle;font-family:Verdana"
           id="tspan2996">j</tspan></text>
    </g>
  </g>
</svg>
